<svg id="screenshot" viewBox="439.8229964964145 224.27523913730812 387.8655519193893 327.00053536012996" width="387.8655519193893" height="327.00053536012996" version="1.1" xmlns="http://www.w3.org/2000/svg" xmlns:xlink="http://www.w3.org/1999/xlink" style="-webkit-print-color-adjust: exact;">
	<g id="shape-f0a48370-c4b9-11ec-a030-cd2c0935e3a6">
		<g id="shape-4fd2bbc0-c4b8-11ec-aeec-d1e845617b8b">
			<g id="shape-4fd68c50-c4b8-11ec-aeec-d1e845617b8b">
				<path d="M733.1011244024235,303.8847191798065C764.0438890848192,321.75959094428123,793.4875145419846,349.84888396925925,794.151018523674,379.13262040199953C795.0171100758711,408.2326423100864,767.1030801525923,438.52710762593523,742.6743992740955,464.3695731312575C718.2398097747201,490.40187476392504,697.4754310279976,512.3679704434489,668.8481084563741,527.6286520828527C640.2207858847504,542.8893337222563,603.9212898169753,551.6405590515775,580.7097848395194,538.3767823237306C557.3075095333136,524.9170478658466,546.7965463677978,489.4361897481023,528.4910231283023,457.70314779962325C510.1914085096854,425.7802697237989,484.1031424379677,397.4153716898945,489.2944324387396,376.1046861617721C494.4916310603903,354.6041645063045,531.1650647041595,340.16397695931096,560.8171423700791,323.60505044194923C590.6658989856277,307.0522455272791,613.481482381569,288.760373896932,641.2115198186065,283.35280607141704C669.1382362052728,277.95135984859417,701.9675893912777,285.81388968529467,733.1011244024235,303.8847191798065ZZ" style="fill: rgb(0, 0, 0); fill-opacity: 1;" />
			</g>
		</g>
		<g id="shape-b182d210-c4b8-11ec-aeec-d1e845617b8b">
			<path d="M494.11359654874195,317.7040396997243" style="fill: none; stroke-width: 2; stroke: rgb(0, 0, 0); stroke-opacity: 1;" />
		</g>
		<g id="shape-79d48f10-c4b9-11ec-aeec-d1e845617b8b">
			<path d="M788.3568685521757,267.26975534489395" style="fill: none; stroke-width: 2; stroke: rgb(0, 0, 0); stroke-opacity: 1;" />
		</g>
		<g id="shape-c3fc4840-c4b8-11ec-aeec-d1e845617b8b">
			<defs>
				<marker refX="3" fill-opacity="1" orient="auto-start-reverse" id="marker-04b47820-c4ba-11ec-ad32-f5b568aa73e7-round" viewBox="0 0 6 6" fill="#000000" refY="3" markerWidth="6" markerHeight="6">
					<path d="M 3 2.5 A 0.5 0.5 0 0 1 3 3.5 " />
				</marker>
			</defs>
			<path d="M484.5365882424004,283.3504843085942C484.5365882424004,283.3504843085942,466.87690876352315,283.9715484786442,458.6376070604442,303.2877051213526C453.0139566916762,316.4717485441535,453.63719036971486,335.40072168658793,453.63719036971486,335.40072168658793" style="fill: none; stroke-width: 5; stroke: rgb(0, 0, 0); stroke-opacity: 1; marker-start: url(&quot;#marker-04b47820-c4ba-11ec-ad32-f5b568aa73e7-round&quot;);" />
		</g>
		<g id="shape-79d4b620-c4b9-11ec-aeec-d1e845617b8b">
			<defs>
				<marker refX="3" fill-opacity="1" orient="auto-start-reverse" id="marker-04b4c640-c4ba-11ec-ad32-f5b568aa73e7-round" viewBox="0 0 6 6" fill="#000000" refY="3" markerWidth="6" markerHeight="6">
					<path d="M 3 2.5 A 0.5 0.5 0 0 1 3 3.5 " />
				</marker>
			</defs>
			<path d="M814.207174226276,267.93604072491496C814.207174226276,267.93604072491496,817.4834009597627,256.86845621767685,805.8084830194584,248.0474233357032C797.8398882348066,242.0267183527689,784.5731859672047,238.7744818231523,784.5731859672047,238.7744818231523" style="fill: none; stroke-width: 5; stroke: rgb(0, 0, 0); stroke-opacity: 1; marker-start: url(&quot;#marker-04b4c640-c4ba-11ec-ad32-f5b568aa73e7-round&quot;);" />
		</g>
		<g id="shape-5a8b1160-c4b9-11ec-aeec-d1e845617b8b">
			<defs>
				<marker refX="3" fill-opacity="1" orient="auto-start-reverse" id="marker-04b53b70-c4ba-11ec-ad32-f5b568aa73e7-round" viewBox="0 0 6 6" fill="#000000" refY="3" markerWidth="6" markerHeight="6">
					<path d="M 3 2.5 A 0.5 0.5 0 0 1 3 3.5 " />
				</marker>
			</defs>
			<path d="M496.73482431467534,297.77593988941743C496.73482431467534,297.77593988941743,477.95148635681267,296.4036520868722,471.2421177094094,312.1330451596127C466.662707362769,322.86898011402286,469.3716321730568,339.22209886155696,469.3716321730568,339.22209886155696" style="fill: none; stroke-width: 5; stroke: rgb(0, 0, 0); stroke-opacity: 1; marker-start: url(&quot;#marker-04b53b70-c4ba-11ec-ad32-f5b568aa73e7-round&quot;);" />
		</g>
		<g id="shape-79d4b621-c4b9-11ec-aeec-d1e845617b8b">
			<defs>
				<marker refX="3" fill-opacity="1" orient="auto-start-reverse" id="marker-04b58990-c4ba-11ec-ad32-f5b568aa73e7-round" viewBox="0 0 6 6" fill="#000000" refY="3" markerWidth="6" markerHeight="6">
					<path d="M 3 2.5 A 0.5 0.5 0 0 1 3 3.5 " />
				</marker>
			</defs>
			<path d="M801.6358251817542,272.725467556941C801.6358251817542,272.725467556941,806.5312345770741,261.34443689641574,797.0241997854915,254.161357132267C790.5352712769516,249.2586201503878,778.6182581162476,247.79456000128013,778.6182581162476,247.79456000128013" style="fill: none; stroke-width: 5; stroke: rgb(0, 0, 0); stroke-opacity: 1; marker-start: url(&quot;#marker-04b58990-c4ba-11ec-ad32-f5b568aa73e7-round&quot;);" />
		</g>
		<g id="shape-a6bc12a0-c4b9-11ec-aeec-d1e845617b8b">
			<defs>
				<marker refX="3" fill-opacity="1" orient="auto-start-reverse" id="marker-04b5fec0-c4ba-11ec-ad32-f5b568aa73e7-round" viewBox="0 0 6 6" fill="#000000" refY="3" markerWidth="6" markerHeight="6">
					<path d="M 3 2.5 A 0.5 0.5 0 0 1 3 3.5 " />
				</marker>
			</defs>
			<path d="M753.7691362658278,499.7951349396657C753.7691362658278,499.7951349396657,763.7992226537187,496.37300802913717,772.8068074398296,484.6324559920031C778.9548415001906,476.6190633317372,785.8522478669624,471.12036403983353,785.8522478669624,471.12036403983353" style="fill: none; stroke-width: 5; stroke: rgb(0, 0, 0); stroke-opacity: 1; marker-start: url(&quot;#marker-04b5fec0-c4ba-11ec-ad32-f5b568aa73e7-round&quot;);" />
		</g>
	</g>
</svg>
